# xmcd CD database file
#
# Track frame offsets:
#	150
#	13659
#	33450
#	50921
#	78062
#	95392
#	119368
#	134023
#	159429
#	180251
#
# Disc length: 2833 seconds
#
# Revision: 0
# Processed by: cddbd v1.5PL3 Copyright (c) Steve Scherf et al.
# Submitted via: CDex 1.51
#
DISCID=790b0f0a
DTITLE=RESOUND WAV. - Set me free
DYEAR=2003
DGENRE=Instrumental
TTITLE0=モラル・スペース  〜 Introduction 〜
TTITLE1=Set me free
TTITLE2=デバイス  〜 Spiritual vessel 〜
TTITLE3=So Long
TTITLE4=続く世界　〜 The world is connected 〜
TTITLE5=Shine Voice
TTITLE6=Noble Invitation　〜 Intermission 〜
TTITLE7=罪深き者達へ　〜 To sinful persons 〜
TTITLE8=Terrestrial People　〜 Visionary orchestra 〜
TTITLE9=Memory to Grace　〜 穏やかな記憶 〜
EXTD=YEAR: 2003
EXTT0=
EXTT1=
EXTT2=
EXTT3=
EXTT4=
EXTT5=
EXTT6=
EXTT7=
EXTT8=
EXTT9=
PLAYORDER=
